# ProBuilder 5.0.6
# https://unity3d.com/unity/features/worldbuilding/probuilder
# 2022-07-24 3:53:48 PM

mtllib ./Cannon.mtl
o Cannon

g Cannon
v -1 -0.8608414 0
v -1 -0.2500217 0
v -0.9238795 -0.8608414 0.3826835
v -0.9238795 -0.2500217 0.3826835
v -0.7071068 -0.8608414 0.7071068
v -0.7071068 -0.2500217 0.7071068
v -0.3826834 -0.8608414 0.9238795
v -0.3826834 -0.2500217 0.9238795
v 0 -0.8608414 1
v 0 -0.2500217 1
v 0.3826834 -0.8608414 0.9238796
v 0.3826834 -0.2500217 0.9238796
v 0.7071068 -0.8608414 0.7071068
v 0.7071068 -0.2500217 0.7071068
v 0.9238795 -0.8608414 0.3826835
v 0.9238795 -0.2500217 0.3826835
v 1 -0.8608414 -8.742278E-08
v 1 -0.2500217 -8.742278E-08
v 0.9238795 -0.8608414 -0.3826834
v 0.9238795 -0.2500217 -0.3826834
v 0.7071068 -0.8608414 -0.7071067
v 0.7071068 -0.2500217 -0.7071067
v 0.3826835 -0.8608414 -0.9238795
v 0.3826835 -0.2500217 -0.9238795
v 0 -0.8608414 -1
v 0 -0.2500217 -1
v -0.3826836 -0.8608414 -0.9238794
v -0.3826836 -0.2500217 -0.9238794
v -0.7071066 -0.8608414 -0.7071069
v -0.7071066 -0.2500217 -0.7071069
v -0.9238796 -0.8608414 -0.3826834
v -0.9238796 -0.2500217 -0.3826834
v -0.6280518 -1.250022 0
v -0.8056259 -0.2499344 0.3337002
v -0.5802383 -1.250022 0.2403431
v 0 -1.250022 0
v -0.4440994 -1.250022 0.4440966
v -0.6166 -0.2499344 0.6165962
v 0 -0.2499344 0
v -0.3337021 -0.2499344 0.8056221
v -0.2403488 -1.250022 0.5802422
v 0 -0.2499344 0.8719997
v 0 -1.250022 0.628047
v 0.3337021 -0.2499344 0.8056221
v 0.2403412 -1.250022 0.5802402
v 0.6166 -0.2499344 0.6165962
v 0.4440994 -1.250022 0.4440966
v 0.8056259 -0.2499344 0.3337002
v 0.5802383 -1.250022 0.2403431
v 0.8720016 -0.2499344 0
v 0.6280518 -1.250022 0
v 0.8056259 -0.2499344 -0.3337002
v 0.5802383 -1.250022 -0.2403431
v 0.6166 -0.2499344 -0.6165962
v 0.4440994 -1.250022 -0.4440966
v 0.3337021 -0.2499344 -0.8056221
v 0.2403412 -1.250022 -0.5802402
v 0 -0.2499344 -0.8719997
v 0 -1.250022 -0.628047
v -0.3337021 -0.2499344 -0.8056221
v -0.2403412 -1.250022 -0.5802402
v -0.6166 -0.2499344 -0.6165962
v -0.4440994 -1.250022 -0.4440966
v -0.8056259 -0.2499344 -0.3337002
v -0.5802383 -1.250022 -0.2403431
v -0.8720016 -0.2499344 0
v -0.539034 1.249945 -0.539031
v -0.2917231 1.249943 -0.704277
v -0.4701446 1.250008 -0.4701395
v -0.2544411 1.250004 -0.6142673
v -0.7042801 1.249946 -0.2917213
v -0.614275 1.250004 -0.2544384
v -4.212761E-06 1.249945 -0.7623034
v -3.428632E-06 1.250009 -0.6648788
v 0.2917166 1.24994 -0.704277
v 0.2544343 1.250013 -0.6142673
v 0.5390276 1.249938 -0.539031
v 0.4701378 1.250009 -0.4701395
v 0.7042717 1.249944 -0.2917213
v 0.6142682 1.250013 -0.2544384
v 0.7622992 1.24994 0
v 0.6648737 1.250011 0
v 0.7042717 1.249944 0.2917213
v 0.6142682 1.250013 0.2544384
v 0.5390276 1.249938 0.539031
v 0.4701378 1.250009 0.4701395
v 0.2917166 1.24994 0.704277
v 0.2544343 1.250013 0.6142673
v -4.212761E-06 1.249945 0.7623034
v -3.428632E-06 1.250009 0.6648788
v -0.2917231 1.249943 0.704277
v -0.2544411 1.250004 0.6142673
v -0.539034 1.249945 0.539031
v -0.4701446 1.250008 0.4701395
v -0.7042801 1.249946 0.2917213
v -0.614275 1.250004 0.2544384
v -0.7623057 1.249943 0
v -0.6648825 1.250014 0
v 0.3829422 -6.532669E-05 -0.924509
v 0.7075882 -6.532669E-05 -0.7075891
v 0.3339615 2.193451E-05 -0.8062515
v 0 2.193451E-05 -0.8726816
v 0.6170807 2.193451E-05 -0.6170788
v 0.9245071 -6.532669E-05 -0.3829441
v 0.8062592 2.193451E-05 -0.3339615
v 1.000679 -6.532669E-05 0
v 0.8726807 2.193451E-05 0
v 0.9245071 -6.532669E-05 0.3829441
v 0.8062592 2.193451E-05 0.3339615
v 0.7075882 -6.532669E-05 0.7075891
v 0.6170807 2.193451E-05 0.6170788
v 0.3829422 -6.532669E-05 0.924509
v 0.3339615 2.193451E-05 0.8062515
v 0 -6.532669E-05 1.000682
v 0 2.193451E-05 0.8726816
v -0.3829422 -6.532669E-05 0.924509
v -0.3339615 2.193451E-05 0.8062515
v -0.7075882 -6.532669E-05 0.7075891
v -0.6170807 2.193451E-05 0.6170788
v -0.9245071 -6.532669E-05 0.3829441
v -0.8062592 2.193451E-05 0.3339615
v -1.000679 -6.532669E-05 0
v -0.8726807 2.193451E-05 0
v -0.9245071 -6.532669E-05 -0.3829441
v -0.8062592 2.193451E-05 -0.3339615
v -0.7075882 -6.532669E-05 -0.7075891
v -0.6170807 2.193451E-05 -0.6170788
v -0.3829422 -6.532669E-05 -0.924509
v -0.3339615 2.193451E-05 -0.8062515
v 0 -6.532669E-05 -1.000682

vt 0 0.3891803
vt 0 1
vt 0.3901807 0.3891803
vt 0.3901807 1
vt 0.36048 0.3891803
vt 0.36048 1
vt 0.7506605 0.3891803
vt 0.7506605 1
vt 0.6363793 0.3891803
vt 0.6363793 1
vt 1.02656 0.3891803
vt 1.02656 1
vt 0.7856951 0.3891803
vt 0.7856951 1
vt 1.175876 0.3891803
vt 1.175876 1
vt -0.3901808 0.3891803
vt -0.3901808 1
vt -0.7506604 0.3891803
vt -0.7506604 1
vt -0.3604799 0.3891803
vt -0.3604799 1
vt -1.02656 0.3891803
vt -1.02656 1
vt -0.6363791 0.3891803
vt -0.6363791 1
vt -1.175876 0.3891803
vt -1.175876 1
vt -0.7856949 0.3891803
vt -0.7856949 1
vt 0.1518506 0
vt 0.8056259 0.3337002
vt 0.2164122 0.3245727
vt 1 0
vt 0.4002678 0.5997322
vt 0.6166 0.6165962
vt 0 0
vt 0.3337021 0.8056221
vt 0.6754235 0.7835907
vt 0 0.8719997
vt 1 0.8481494
vt -0.3337021 0.8056221
vt 1.324573 0.7835879
vt -0.6166 0.6165962
vt 1.599732 0.5997322
vt -0.8056259 0.3337002
vt 1.783588 0.3245728
vt -0.8720016 0
vt 1.848149 -1.192093E-07
vt -0.8056259 -0.3337002
vt 1.783588 -0.3245727
vt -0.6166 -0.6165962
vt 1.599732 -0.5997321
vt -0.3337021 -0.8056221
vt 1.324573 -0.7835878
vt 0 -0.8719997
vt 1 -0.8481494
vt 0.3337021 -0.8056221
vt 0.6754271 -0.7835878
vt 0.6166 -0.6165962
vt 0.4002679 -0.5997323
vt 0.8056259 -0.3337002
vt 0.2164122 -0.3245727
vt 0.8720016 0
vt 0.5385793 -0.5383369
vt 0.2912684 -0.7035829
vt 0.46969 -0.4694454
vt 0.2539865 -0.6135733
vt 0.7036524 -0.291294
vt 0.5384063 -0.5386037
vt 0.6136473 -0.2540111
vt 0.4695169 -0.4697122
vt 0.2915582 -0.7034943
vt -0.000160651 -0.7615206
vt 0.2542763 -0.6134846
vt -0.0001614435 -0.6640961
vt 0.0001885334 -0.7614895
vt -0.2915323 -0.7034632
vt -0.25425 -0.6134534
vt -0.2911797 -0.7034878
vt -0.5384907 -0.5382417
vt -0.2538973 -0.6134781
vt -0.4696008 -0.4693502
vt -0.7035165 -0.2911871
vt -0.4693826 -0.4696053
vt -0.613513 -0.2539041
vt -0.7033814 -0.2915601
vt -0.7614089 0.0001612931
vt -0.6133779 -0.2542771
vt -0.6639833 0.0001612932
vt -0.7033661 0.291557
vt -0.6133626 0.2542741
vt -0.7035317 0.2911973
vt -0.5382876 0.538507
vt -0.6135281 0.2539143
vt -0.4693978 0.4696154
vt -0.5385054 0.5382638
vt -0.2911945 0.7035099
vt -0.4696156 0.4693723
vt -0.2539121 0.6135002
vt -0.29151 0.7033509
vt 0.0002108539 0.7613773
vt -0.2542276 0.6133412
vt 0.0002100803 0.6639527
vt 0.2915521 0.7034632
vt -0.0001676061 0.664065
vt 0.2542701 0.6134535
vt 0.2912848 0.7036075
vt 0.5385957 0.5383615
vt 0.2540029 0.6135978
vt 0.4697064 0.4694699
vt 0.5383501 0.5385662
vt 0.7035962 0.2912565
vt 0.4694607 0.4696746
vt 0.6135911 0.2539735
vt 0.7035307 0.2915876
vt 0.7615563 -0.0001337468
vt 0.6135257 0.2543046
vt 0.6641331 -0.0001337482
vt 0.7613955 0.0001657617
vt 0.7033699 -0.2915556
vt 0.6639723 0.0001657617
vt 0.6133648 -0.2542726
vt 0.1950904 -0.247403
vt -0.1950902 -0.247403
vt 0.1952251 0.002554281
vt -0.1952225 0.002554285
vt 0.1701206 -0.2476481
vt -0.1701191 -0.2476481
vt 0.1702522 0.002309108
vt -0.1702521 0.00230911
vt 0.1952182 -0.1805047
vt -0.195228 -0.1805047
vt 0.1487119 1.091181
vt -0.1487233 1.091175
vt 0.1702698 -0.1377193
vt -0.1702329 -0.1377193
vt 0.1297259 1.128779
vt -0.1296962 1.128777
vt 0.195228 -0.1804996
vt -0.1952183 -0.1804996
vt 0.04225693 0.1951842
vt -0.1199106 -0.1596997
vt 0.4972674 -0.09252044
vt 0.395422 -0.3154033
vt 0.1950903 0.04269601
vt -0.1950904 0.04269601
vt 0.122526 -0.4907323
vt -0.1225269 -0.4907281
vt -0.1199176 0.1596966
vt 0.04225086 -0.1951871
vt 0.3954147 0.3154013
vt 0.4972607 0.09251866
vt -0.1693766 0.1058024
vt 0.1097094 -0.1668726
vt 0.2553063 0.4366391
vt 0.43059 0.2653845
vt -0.1097066 -0.1668759
vt 0.1693802 0.1057988
vt -0.4305863 0.2653819
vt -0.2553023 0.4366361
vt -0.04225693 -0.1951843
vt 0.1199105 0.1596996
vt -0.4972675 0.0925203
vt -0.3954221 0.3154032
vt 0.1199174 -0.1596963
vt -0.04225082 0.1951872
vt -0.3954148 -0.3154011
vt -0.4972607 -0.09251845
vt 0.1693769 -0.1058025
vt -0.1097095 0.1668728
vt -0.2553062 -0.4366391
vt -0.4305899 -0.2653845
vt 0.1097131 0.1668687
vt -0.1693726 -0.1058071
vt 0.430588 -0.2653886
vt 0.2553112 -0.4366428

vn -1 0 6.836892E-08
vn -0.9999991 -0.0013585 -7.596553E-08
vn -0.9238795 0 0.3826835
vn -0.9238788 -0.001360274 0.3826826
vn -0.7071068 0 0.7071068
vn -0.7071058 -0.00136259 0.7071065
vn -0.3826835 0 0.9238795
vn -0.3826833 -0.001361987 0.9238786
vn -7.596547E-08 0 1
vn 2.127035E-07 -0.001363532 0.9999991
vn 0.3826834 0 0.9238795
vn 0.3826827 -0.001362131 0.9238788
vn 0.7071068 0 0.7071068
vn 0.7071065 -0.001362371 0.7071058
vn 0.9238795 0 0.3826834
vn 0.9238787 -0.001359204 0.3826829
vn 1 0 -6.077237E-08
vn 0.9999991 -0.001358511 9.115863E-08
vn 0.9238795 0 -0.3826835
vn 0.9238788 -0.00136028 -0.3826827
vn 0.7071069 0 -0.7071067
vn 0.7071059 -0.001362548 -0.7071064
vn 0.3826835 0 -0.9238795
vn 0.3826834 -0.001361907 -0.9238786
vn -3.798273E-08 0 -1
vn -3.038621E-07 -0.001363568 -0.9999991
vn -0.3826835 0 -0.9238795
vn -0.3826827 -0.001362186 -0.9238788
vn -0.7071067 0 -0.7071068
vn -0.7071065 -0.001362405 -0.7071058
vn -0.9238795 0 -0.3826835
vn -0.9238787 -0.001359155 -0.3826831
vn 0 -1 0
vn 0 1 0
vn -0.0003637024 0.9999998 -0.0005551465
vn -0.0005021215 0.9999998 -0.0003417712
vn 0.0006040817 0.9999998 -0.0004272464
vn 0.0004177106 0.9999998 0.0006136128
vn 0.3810334 0.09275599 -0.9198967
vn 0.7040582 0.09275607 -0.7040585
vn -0.3826812 0.002724411 0.9238765
vn -6.153203E-07 0.00272712 0.9999963
vn -0.3814277 -0.08093963 0.9208483
vn 5.715979E-08 -0.08093792 0.9967191
vn -0.707101 0.002728866 0.7071072
vn -0.7047809 -0.08094078 0.7047926
vn 0.9198972 0.09275942 -0.3810312
vn -0.9238782 0.002734407 0.3826769
vn -0.9208508 -0.08093529 0.3814228
vn 0.9956885 0.0927602 5.340178E-08
vn -0.9999963 0.002722729 4.459164E-06
vn -0.9967188 -0.0809417 2.263518E-06
vn 0.9198971 0.09275842 0.3810317
vn -0.9238753 0.00273658 -0.3826838
vn -0.9208493 -0.08093635 -0.3814262
vn 0.7040589 0.09275603 0.7040578
vn -0.7071027 0.002724015 -0.7071057
vn -0.7047822 -0.08093831 -0.7047915
vn 0.3810327 0.09275623 0.9198969
vn -0.3826823 0.002724443 -0.923876
vn -0.3814276 -0.08093963 -0.9208484
vn 1.602055E-07 0.09275424 0.995689
vn 6.153203E-07 0.00272712 -0.9999963
vn 6.097045E-07 -0.08093803 -0.9967191
vn -0.3810334 0.0927548 0.9198968
vn 0.3826812 0.002724411 -0.9238765
vn 0.3814272 -0.08093905 -0.9208486
vn -0.7040582 0.09275389 0.7040589
vn 0.707101 0.002728866 -0.7071072
vn 0.7047814 -0.08093907 -0.7047923
vn -0.9198974 0.09275633 0.3810316
vn 0.9238782 0.002734407 -0.3826769
vn 0.9208502 -0.08093303 -0.3814245
vn -0.9956887 0.09275737 -8.239128E-07
vn 0.9999963 0.002722729 -4.459164E-06
vn 0.9967191 -0.08093844 -4.572764E-07
vn -0.9198977 0.09275544 -0.3810311
vn 0.9238753 0.00273658 0.3826838
vn 0.9208496 -0.08093433 0.3814257
vn -0.7040588 0.09275363 -0.7040582
vn 0.7071027 0.002724015 0.7071057
vn 0.7047819 -0.0809366 0.704792
vn -0.3810326 0.09275499 -0.9198971
vn 0.3826823 0.002724443 0.923876
vn 0.3814282 -0.08093901 0.9208482
vn -1.068037E-07 0.09275424 -0.995689
vn 0.9075255 0.187327 0.3759069
vn 0.6945896 0.1873268 0.694589
vn -0.9113725 -0.1639973 -0.3774984
vn -0.9864609 -0.1639962 5.314838E-08
vn -0.6975287 -0.1639958 -0.6975379
vn 0.3759081 0.1873261 0.9075252
vn -0.3775016 -0.1639939 -0.9113718
vn -5.314032E-08 0.1873253 0.982298
vn 1.905758E-06 -0.1639931 -0.9864615
vn -0.3759074 0.1873235 0.907526
vn 0.3775024 -0.1639926 -0.9113717
vn -0.6945888 0.1873222 0.6945911
vn 0.6975292 -0.1639922 -0.6975382
vn -0.9075267 0.1873213 0.3759069
vn 0.9113708 -0.1639932 -0.3775043
vn -0.9822987 0.1873214 -1.412012E-06
vn 0.986462 -0.1639901 3.598912E-06
vn -0.9075275 0.187321 -0.375905
vn 0.9113727 -0.1639926 0.3774999
vn -0.6945888 0.1873226 -0.6945909
vn 0.6975282 -0.1639925 0.6975392
vn -0.3759071 0.1873238 -0.9075261
vn 0.3775031 -0.1639927 0.9113714
vn 5.086287E-07 0.1873253 -0.9822979
vn 2.057611E-06 -0.1639934 0.9864615
vn 0.375908 0.187326 -0.9075253
vn -0.3775032 -0.1639939 0.9113711
vn 0.6945894 0.1873268 -0.6945892
vn -0.6975279 -0.1639955 0.6975387
vn 0.9075257 0.187327 -0.3759066
vn -0.9113725 -0.1639973 0.3774984
vn 0.9822976 0.1873271 -1.670124E-07
vn -0.5111896 -0.6909222 0.5111865
vn -0.6678974 -0.6909257 0.2766492
vn -0.7229291 -0.6909222 4.328154E-06
vn -0.6678951 -0.6909252 -0.2766559
vn -0.5111889 -0.690924 -0.5111848
vn -0.2766502 -0.690925 -0.6678976
vn 5.269053E-08 -0.6909254 -0.7229261
vn 0.2766517 -0.6909257 -0.6678964
vn 0.5111858 -0.6909237 -0.5111883
vn 0.6678974 -0.6909257 -0.2766492
vn 0.7229291 -0.6909223 -4.305572E-06
vn 0.6678952 -0.6909251 0.2766559
vn 0.5111889 -0.690924 0.5111848
vn 0.2766501 -0.6909251 0.6678977
vn -1.204355E-07 -0.6909253 0.7229261
vn -0.276651 -0.690922 0.6679005

usemtl terrain
f 35/33/33 36/34/33 37/35/33
f 33/31/33 36/34/33 35/33/33
f 65/63/33 36/34/33 33/31/33
f 63/61/33 36/34/33 65/63/33
f 61/59/33 36/34/33 63/61/33
f 59/57/33 36/34/33 61/59/33
f 57/55/33 36/34/33 59/57/33
f 55/53/33 36/34/33 57/55/33
f 53/51/33 36/34/33 55/53/33
f 51/49/33 36/34/33 53/51/33
f 49/47/33 36/34/33 51/49/33
f 47/45/33 36/34/33 49/47/33
f 45/43/33 36/34/33 47/45/33
f 43/41/33 36/34/33 45/43/33
f 41/39/33 36/34/33 43/41/33
f 37/35/33 36/34/33 41/39/33
f 4/4/4 2/2/2 1/1/1
f 1/1/1 3/3/3 4/4/4
f 6/8/6 4/6/4 3/5/3
f 3/5/3 5/7/5 6/8/6
f 8/12/8 6/10/6 5/9/5
f 5/9/5 7/11/7 8/12/8
f 10/16/10 8/14/8 7/13/7
f 7/13/7 9/15/9 10/16/10
f 12/16/12 10/14/10 9/13/9
f 9/13/9 11/15/11 12/16/12
f 14/12/14 12/10/12 11/9/11
f 11/9/11 13/11/13 14/12/14
f 16/8/16 14/6/14 13/5/13
f 13/5/13 15/7/15 16/8/16
f 18/4/18 16/2/16 15/1/15
f 15/1/15 17/3/17 18/4/18
f 20/2/20 18/18/18 17/17/17
f 17/17/17 19/1/19 20/2/20
f 22/22/22 20/20/20 19/19/19
f 19/19/19 21/21/21 22/22/22
f 24/26/24 22/24/22 21/23/21
f 21/23/21 23/25/23 24/26/24
f 26/30/26 24/28/24 23/27/23
f 23/27/23 25/29/25 26/30/26
f 28/30/28 26/28/26 25/27/25
f 25/27/25 27/29/27 28/30/28
f 30/26/30 28/24/28 27/23/27
f 27/23/27 29/25/29 30/26/30
f 32/22/32 30/20/30 29/19/29
f 29/19/29 31/21/31 32/22/32
f 2/2/2 32/18/32 31/17/31
f 31/17/31 1/1/1 2/2/2
f 70/68/35 68/66/35 67/65/35
f 67/65/35 69/67/35 70/68/35
f 69/72/36 67/70/36 71/69/36
f 71/69/36 72/71/36 69/72/36
f 74/76/35 73/74/35 68/73/35
f 68/73/35 70/75/35 74/76/35
f 76/79/35 75/78/35 73/77/35
f 73/77/35 74/76/35 76/79/35
f 78/83/35 77/81/35 75/80/35
f 75/80/35 76/82/35 78/83/35
f 80/86/37 79/84/37 77/81/37
f 77/81/37 78/85/37 80/86/37
f 82/90/37 81/88/37 79/87/37
f 79/87/37 80/89/37 82/90/37
f 84/92/37 83/91/37 81/88/37
f 81/88/37 82/90/37 84/92/37
f 86/96/37 85/94/37 83/93/37
f 83/93/37 84/95/37 86/96/37
f 88/100/38 87/98/38 85/97/38
f 85/97/38 86/99/38 88/100/38
f 90/104/38 89/102/38 87/101/38
f 87/101/38 88/103/38 90/104/38
f 92/107/38 91/105/38 89/102/38
f 89/102/38 90/106/38 92/107/38
f 94/111/38 93/109/38 91/108/38
f 91/108/38 92/110/38 94/111/38
f 96/115/36 95/113/36 93/112/36
f 93/112/36 94/114/36 96/115/36
f 98/119/36 97/117/36 95/116/36
f 95/116/36 96/118/36 98/119/36
f 72/123/36 71/121/36 97/120/36
f 97/120/36 98/122/36 72/123/36
f 85/135/88 110/133/56 108/132/53
f 108/132/53 83/134/87 85/135/88
f 87/135/92 112/133/59 110/132/56
f 110/132/56 85/134/88 87/135/92
f 89/135/94 114/133/62 112/132/59
f 112/132/59 87/134/92 89/135/94
f 91/135/96 116/133/65 114/132/62
f 114/132/62 89/134/94 91/135/96
f 93/135/98 118/133/68 116/132/65
f 116/132/65 91/134/96 93/135/98
f 95/135/100 120/141/71 118/140/68
f 118/140/68 93/134/98 95/135/100
f 97/135/102 122/141/74 120/140/71
f 120/140/71 95/134/100 97/135/102
f 71/135/104 124/141/77 122/140/74
f 122/140/74 97/134/102 71/135/104
f 67/135/106 126/141/80 124/140/77
f 124/140/77 71/134/104 67/135/106
f 68/135/108 128/133/83 126/132/80
f 126/132/80 67/134/106 68/135/108
f 73/135/110 130/133/86 128/132/83
f 128/132/83 68/134/108 73/135/110
f 75/135/112 99/133/39 130/132/86
f 130/132/86 73/134/110 75/135/112
f 77/135/114 100/133/40 99/132/39
f 99/132/39 75/134/112 77/135/114
f 79/135/116 104/133/47 100/132/40
f 100/132/40 77/134/114 79/135/116
f 81/135/118 106/133/50 104/132/47
f 104/132/47 79/134/116 81/135/118
f 83/135/87 108/133/53 106/132/50
f 106/132/50 81/134/118 83/135/87
f 37/144/119 5/142/119 3/143/120
f 3/143/120 35/145/120 37/144/119
f 35/148/120 3/146/120 1/147/121
f 1/147/121 33/149/121 35/148/120
f 33/148/121 1/146/121 31/147/122
f 31/147/122 65/149/122 33/148/121
f 65/152/122 31/150/122 29/151/123
f 29/151/123 63/153/123 65/152/122
f 63/156/123 29/154/123 27/155/124
f 27/155/124 61/157/124 63/156/123
f 61/148/124 27/146/124 25/147/125
f 25/147/125 59/149/125 61/148/124
f 59/148/125 25/146/125 23/147/126
f 23/147/126 57/149/126 59/148/125
f 57/160/126 23/158/126 21/159/127
f 21/159/127 55/161/127 57/160/126
f 55/164/127 21/162/127 19/163/128
f 19/163/128 53/165/128 55/164/127
f 53/148/128 19/146/128 17/147/129
f 17/147/129 51/149/129 53/148/128
f 51/148/129 17/146/129 15/147/130
f 15/147/130 49/149/130 51/148/129
f 49/168/130 15/166/130 13/167/131
f 13/167/131 47/169/131 49/168/130
f 47/172/131 13/170/131 11/171/132
f 11/171/132 45/173/132 47/172/131
f 45/148/132 11/146/132 9/147/133
f 9/147/133 43/149/133 45/148/132
f 43/148/133 9/146/133 7/147/134
f 7/147/134 41/149/134 43/148/133
f 41/176/134 7/174/134 5/175/119
f 5/175/119 37/177/119 41/176/134

usemtl brightTerrain
f 99/126/39 100/127/40 22/125/22 24/124/24
f 100/126/40 104/127/47 20/125/20 22/124/22
f 104/126/47 106/127/50 18/125/18 20/124/20
f 106/126/50 108/127/53 16/125/16 18/124/18
f 108/126/53 110/127/56 14/125/14 16/124/16
f 110/126/56 112/127/59 12/125/12 14/124/14
f 112/126/59 114/127/62 10/125/10 12/124/12
f 114/126/62 116/127/65 8/125/8 10/124/10
f 116/126/65 118/127/68 6/125/6 8/124/8
f 118/126/68 120/127/71 4/125/4 6/124/6
f 120/126/71 122/127/74 2/125/2 4/124/4
f 122/126/74 124/127/77 32/125/32 2/124/2
f 124/126/77 126/127/80 30/125/30 32/124/32
f 126/126/80 128/127/83 28/125/28 30/124/30
f 128/126/83 130/127/86 26/125/26 28/124/28
f 130/126/86 99/127/39 24/125/24 26/124/26

usemtl PitchBlack
f 40/38/34 39/37/34 38/36/34
f 42/40/34 39/37/34 40/38/34
f 44/42/34 39/37/34 42/40/34
f 46/44/34 39/37/34 44/42/34
f 48/46/34 39/37/34 46/44/34
f 50/48/34 39/37/34 48/46/34
f 52/50/34 39/37/34 50/48/34
f 54/52/34 39/37/34 52/50/34
f 56/54/34 39/37/34 54/52/34
f 58/56/34 39/37/34 56/54/34
f 60/58/34 39/37/34 58/56/34
f 62/60/34 39/37/34 60/58/34
f 64/62/34 39/37/34 62/60/34
f 66/64/34 39/37/34 64/62/34
f 34/32/34 39/37/34 66/64/34
f 38/36/34 39/37/34 34/32/34
f 102/131/44 58/129/42 56/128/41
f 56/128/41 101/130/43 102/131/44
f 101/131/43 56/129/41 54/128/45
f 54/128/45 103/130/46 101/131/43
f 103/131/46 54/129/45 52/128/48
f 52/128/48 105/130/49 103/131/46
f 105/131/49 52/129/48 50/128/51
f 50/128/51 107/130/52 105/131/49
f 107/131/52 50/129/51 48/128/54
f 48/128/54 109/130/55 107/131/52
f 109/131/55 48/129/54 46/128/57
f 46/128/57 111/130/58 109/131/55
f 111/131/58 46/129/57 44/128/60
f 44/128/60 113/130/61 111/131/58
f 113/131/61 44/129/60 42/128/63
f 42/128/63 115/130/64 113/131/61
f 115/131/64 42/129/63 40/128/66
f 40/128/66 117/130/67 115/131/64
f 117/131/67 40/129/66 38/128/69
f 38/128/69 119/130/70 117/131/67
f 119/131/70 38/129/69 34/128/72
f 34/128/72 121/130/73 119/131/70
f 121/131/73 34/129/72 66/128/75
f 66/128/75 123/130/76 121/131/73
f 123/131/76 66/129/75 64/128/78
f 64/128/78 125/130/79 123/131/76
f 125/131/79 64/129/78 62/128/81
f 62/128/81 127/130/82 125/131/79
f 127/131/82 62/129/81 60/128/84
f 60/128/84 129/130/85 127/131/82
f 129/131/85 60/129/84 58/128/42
f 58/128/42 102/130/44 129/131/85
f 82/139/90 107/137/52 109/136/55
f 109/136/55 84/138/89 82/139/90
f 84/139/89 109/137/55 111/136/58
f 111/136/58 86/138/91 84/139/89
f 86/139/91 111/137/58 113/136/61
f 113/136/61 88/138/93 86/139/91
f 88/139/93 113/137/61 115/136/64
f 115/136/64 90/138/95 88/139/93
f 90/139/95 115/137/64 117/136/67
f 117/136/67 92/138/97 90/139/95
f 92/139/97 117/137/67 119/136/70
f 119/136/70 94/138/99 92/139/97
f 94/139/99 119/137/70 121/136/73
f 121/136/73 96/138/101 94/139/99
f 96/139/101 121/137/73 123/136/76
f 123/136/76 98/138/103 96/139/101
f 98/139/103 123/137/76 125/136/79
f 125/136/79 72/138/105 98/139/103
f 72/139/105 125/137/79 127/136/82
f 127/136/82 69/138/107 72/139/105
f 69/139/107 127/137/82 129/136/85
f 129/136/85 70/138/109 69/139/107
f 70/139/109 129/137/85 102/136/44
f 102/136/44 74/138/111 70/139/109
f 74/139/111 102/137/44 101/136/43
f 101/136/43 76/138/113 74/139/111
f 76/139/113 101/137/43 103/136/46
f 103/136/46 78/138/115 76/139/113
f 78/139/115 103/137/46 105/136/49
f 105/136/49 80/138/117 78/139/115
f 80/139/117 105/137/49 107/136/52
f 107/136/52 82/138/90 80/139/117

