# ProBuilder 5.0.6
# https://unity3d.com/unity/features/worldbuilding/probuilder
# 2022-07-24 4:05:17 PM

mtllib ./Windmill.mtl
o Windmill

g Windmill
v 2.5 -0.25 5
v -2.5 -0.25 5
v 2.5 0.25 5
v -2.5 0.25 5
v -2.5 -0.25 -0.25
v -2.5 -0.25 -5
v -2.5 0.25 -0.25
v -2.5 0.25 -5
v 2.5 -0.25 -5
v 2.5 0.25 -5
v 2.5 -0.25 -0.25
v 2.5 0.25 -0.25
v 2.5 -5 -0.25
v -2.5 -5 -0.25
v 2.5 -5 0.25
v -2.5 -5 0.25
v 2.5 0.25 0.25
v 2.5 -0.25 0.25
v -2.5 -0.25 0.25
v -2.5 0.25 0.25
v -2.5 5 -0.25
v 2.5 5 -0.25
v -2.5 5 0.25
v 2.5 5 0.25

vt 0 -0.25
vt -5 -0.25
vt 0 0.25
vt -5 0.25
vt 12 -0.25
vt 2 -0.25
vt 12 0.25
vt 2 0.25
vt 5 -0.25
vt 5 0.25
vt -2 -0.25
vt -12 -0.25
vt -2 0.25
vt -12 0.25
vt 0 12
vt 5 12
vt 0 2
vt 5 2
vt -5 2
vt -5 12
vt 2.5 -0.25
vt -2.5 -0.25
vt 2.5 0.25
vt -2.5 0.25
vt 0.25 0.25
vt 0.25 -0.25
vt -0.25 0.25
vt -0.25 -0.25
vt 2.5 5
vt -2.5 5
vt 0.25 5
vt -0.25 5
vt -2.5 -5
vt 2.5 -5
vt -0.25 -5
vt 0.25 -5

vn 0 0 1
vn -1 0 0
vn 0 0 -1
vn 1 0 0
vn 0 1 0
vn 0 -1 0

usemtl movingTerrain
f 3/3/1 4/4/1 2/2/1 1/1/1
f 7/7/2 8/8/2 6/6/2 5/5/2
f 8/10/3 10/3/3 9/1/3 6/9/3
f 10/13/4 12/14/4 11/12/4 9/11/4
f 10/17/5 8/18/5 7/16/5 12/15/5
f 11/15/6 5/20/6 6/19/6 9/17/6
f 15/23/6 16/24/6 14/22/6 13/21/6
f 17/27/4 18/28/4 11/26/4 12/25/4
f 19/26/2 20/25/2 7/27/2 5/28/2
f 23/23/5 24/24/5 22/22/5 21/21/5
f 1/29/6 2/30/6 19/24/6 18/23/6
f 3/4/4 1/2/4 18/28/4 17/27/4
f 2/9/2 4/10/2 20/25/2 19/26/2
f 4/29/5 3/30/5 17/24/5 20/23/5
f 21/29/3 22/30/3 12/24/3 7/23/3
f 23/31/2 21/32/2 7/27/2 20/25/2
f 22/31/4 24/32/4 17/27/4 12/25/4
f 24/29/1 23/30/1 20/24/1 17/23/1
f 13/33/3 14/34/3 5/21/3 11/22/3
f 15/35/4 13/36/4 11/26/4 18/28/4
f 14/35/2 16/36/2 19/26/2 5/28/2
f 16/33/1 15/34/1 18/21/1 19/22/1

